# xmcd
#
# Track frame offsets:
#	150
#	6997
#	15305
#	24045
#	32272
#	40967
#	51820
#	62445
#	74180
#	86055
#	96570
#	108682
#	121412
#	132940
#	143842
#	156945
#	169170
#	181595
#	193460
#	204377
#	217007
#	228655
#	241207
#	253765
#	264715
#	277055
#	287122
#	301165
#	310337
#	321242
#	332415
#	347057
#
# Disc length: 4777 seconds
#
# Revision: 1
# Processed by: cddbd v1.4PL0 Copyright (c) Steve Scherf et al.
# Submitted via: CDmax 1.8
#
DISCID=df12a720
DTITLE=Dub Dickerson - Boppin' In The Dark
DYEAR=1900
DGENRE=Country
TTITLE0=Boppin' In The Dark
TTITLE1=Sugar Lips
TTITLE2=Kiss Me With Your Eyes
TTITLE3=(I Think) I'm Falling In Love
TTITLE4=The Girl In The Cardigan Sweater
TTITLE5=Count Me In
TTITLE6=No One Could Ever Love You
TTITLE7=Look, Look, Look
TTITLE8=You Started It All
TTITLE9=Under The Heading Of My Business
TTITLE10=I Must've Drove My Mules Too Hard
TTITLE11=That's Not All
TTITLE12=Owl Hoot Blues
TTITLE13=Ain't Got No Doggone Gal
TTITLE14=If I Had You Back
TTITLE15=Chinchie Hotel
TTITLE16=Money Talks
TTITLE17=Just In Time To Be Too Late
TTITLE18=The Bells Of Monterey
TTITLE19=One Night Stand
TTITLE20=Sweet Bunch Of Bitterweeds
TTITLE21=Dear Love
TTITLE22=Everything Depends On You
TTITLE23=Mama Laid The Law Down
TTITLE24=I Stand Accused
TTITLE25=My Gal Gertie
TTITLE26=Each Time
TTITLE27=Shotgun Wedding
TTITLE28=All Over You
TTITLE29=My Impression Of You
TTITLE30=The Bottle
TTITLE31=Mama Laid The Law Down
EXTD=
EXTT0=
EXTT1=
EXTT2=
EXTT3=
EXTT4=
EXTT5=
EXTT6=
EXTT7=
EXTT8=
EXTT9=
EXTT10=
EXTT11=
EXTT12=
EXTT13=
EXTT14=
EXTT15=
EXTT16=
EXTT17=
EXTT18=
EXTT19=
EXTT20=
EXTT21=
EXTT22=
EXTT23=
EXTT24=
EXTT25=
EXTT26=
EXTT27=
EXTT28=
EXTT29=
EXTT30=
EXTT31=
PLAYORDER=
